<svg width="48" height="40" viewBox="0 0 48 40" fill="none" xmlns="http://www.w3.org/2000/svg">
<path d="M43.0312 10.25C43.0312 10.7188 43.0312 11.0938 43.0312 11.5625C43.0312 24.5938 33.1875 39.5 15.0938 39.5C9.46875 39.5 4.3125 37.9062 0 35.0938C0.75 35.1875 1.5 35.2812 2.34375 35.2812C6.9375 35.2812 11.1562 33.6875 14.5312 31.0625C10.2188 30.9688 6.5625 28.1562 5.34375 24.2188C6 24.3125 6.5625 24.4062 7.21875 24.4062C8.0625 24.4062 9 24.2188 9.75 24.0312C5.25 23.0938 1.875 19.1562 1.875 14.375V14.2812C3.1875 15.0312 4.78125 15.4062 6.375 15.5C3.65625 13.7188 1.96875 10.7188 1.96875 7.34375C1.96875 5.46875 2.4375 3.78125 3.28125 2.375C8.15625 8.28125 15.4688 12.2188 23.625 12.6875C23.4375 11.9375 23.3438 11.1875 23.3438 10.4375C23.3438 5 27.75 0.59375 33.1875 0.59375C36 0.59375 38.5312 1.71875 40.4062 3.6875C42.5625 3.21875 44.7188 2.375 46.5938 1.25C45.8438 3.59375 44.3438 5.46875 42.2812 6.6875C44.25 6.5 46.2188 5.9375 47.9062 5.1875C46.5938 7.15625 44.9062 8.84375 43.0312 10.25Z" fill="#2F80ED"/>
</svg>
